<?xml version="1.0" standalone="no"?>
<!DOCTYPE svg PUBLIC "-//W3C//DTD SVG 20010904//EN"
 "http://www.w3.org/TR/2001/REC-SVG-20010904/DTD/svg10.dtd">
<svg version="1.0" xmlns="http://www.w3.org/2000/svg"
 width="334.000000pt" height="517.000000pt" viewBox="0 0 334.000000 517.000000"
 preserveAspectRatio="xMidYMid meet">
<metadata>
Created by potrace 1.16, written by Peter Selinger 2001-2019
</metadata>
<g transform="translate(0.000000,517.000000) scale(0.100000,-0.100000)"
fill="#000000" stroke="none">
<path d="M1652 4550 l-3 -235 -152 -300 -152 -300 -145 -2 c-181 -2 -170 -2
-170 -10 0 -10 82 -55 88 -49 2 3 -11 13 -30 23 l-33 18 134 3 c73 1 136 1
138 -2 2 -2 -5 -22 -17 -45 -13 -27 -27 -41 -40 -41 -19 0 -20 2 -6 35 8 19
13 35 10 35 -5 0 -34 -64 -34 -75 0 -3 9 -5 20 -5 11 0 20 -2 20 -5 0 -3 -22
-50 -50 -104 -27 -54 -46 -101 -43 -105 4 -3 39 -6 80 -6 l73 0 0 -70 0 -70
-40 0 -40 0 0 -603 c0 -572 -1 -605 -18 -620 -16 -15 -45 -17 -195 -17 l-177
0 0 64 c0 64 -14 92 -31 65 -11 -18 -11 -240 0 -258 17 -26 31 1 31 60 l0 59
178 0 c225 0 212 10 212 -163 l0 -127 -30 0 -30 0 0 -165 0 -165 30 0 30 0 -2
-447 c-1 -247 -3 -438 -6 -426 -3 23 -42 34 -42 13 0 -5 7 -7 15 -4 9 4 15 0
15 -9 0 -18 -38 -33 -50 -20 -4 4 -10 17 -12 28 -3 18 -4 18 -10 3 -10 -24 19
-51 48 -45 16 3 21 0 17 -10 -3 -8 2 -22 11 -31 13 -15 16 -52 19 -223 l2
-204 3 205 c3 245 5 250 93 247 53 -2 54 -3 54 -32 l1 -30 162 -3 162 -2 0 35
0 35 130 0 c119 0 130 -2 140 -20 14 -26 35 -25 54 1 11 16 21 20 40 15 15 -3
26 -2 26 3 0 5 -17 11 -37 13 l-38 3 -3 453 -2 452 30 0 30 0 0 165 0 165 -30
0 -30 0 0 128 c1 90 5 132 14 145 12 15 34 17 195 17 l181 0 0 -52 c0 -57 11
-85 29 -74 15 10 15 262 0 272 -18 11 -29 -17 -29 -78 l0 -58 -183 0 c-129 0
-187 4 -195 12 -9 9 -12 160 -12 620 l0 608 -40 0 -40 0 0 70 0 70 80 0 c44 0
80 2 80 5 0 3 -34 73 -75 155 -41 82 -75 152 -75 155 0 3 21 5 48 5 36 0 50
-5 60 -20 7 -11 19 -20 27 -20 8 0 20 9 27 20 7 11 21 20 30 20 14 0 18 -8 18
-40 0 -22 2 -40 4 -40 2 0 22 19 45 42 l42 41 -38 39 c-20 21 -41 38 -45 38
-4 0 -8 -16 -8 -35 0 -28 -4 -35 -20 -35 -11 0 -29 6 -40 12 -15 10 -22 10
-32 0 -7 -7 -38 -12 -70 -12 l-58 0 -70 140 c-38 77 -70 142 -70 145 0 3 27 5
60 5 57 0 60 -1 48 -19 -14 -22 3 -50 31 -52 9 -1 5 -4 -9 -9 l-25 -8 28 -1
c21 -1 27 4 27 20 0 14 -5 19 -14 16 -8 -3 -19 0 -25 7 -14 16 5 37 27 29 10
-4 13 -2 8 5 -5 9 14 13 71 14 43 1 7 5 -81 8 l-159 5 -76 145 -76 145 -5 240
-6 240 -2 -235z m67 -379 c40 -80 58 -125 54 -140 -5 -21 -6 -21 -27 -4 -19
16 -20 17 -7 1 10 -13 10 -18 2 -18 -7 0 -11 -10 -9 -22 2 -16 11 -24 29 -26
24 -3 25 0 23 33 -2 19 -1 35 1 35 5 0 315 -616 315 -625 0 -3 -200 -5 -445
-5 -245 0 -445 2 -445 5 0 10 440 885 445 885 3 0 32 -53 64 -119z m-219 -866
c0 -68 2 -75 20 -75 15 0 20 -7 20 -25 l0 -25 115 0 115 0 0 25 c0 20 5 25 25
25 14 0 25 5 25 10 0 6 -11 8 -25 4 -20 -5 -25 -2 -25 12 0 9 7 26 16 36 23
25 4 46 -41 46 -30 0 -35 -3 -35 -24 0 -23 -2 -24 -85 -24 -84 0 -85 0 -85
-25 0 -16 -6 -25 -15 -25 -12 0 -15 14 -15 70 l0 70 225 0 225 0 0 -75 0 -75
40 0 40 0 0 -596 0 -596 -22 -19 c-20 -16 -41 -18 -160 -19 l-137 0 -3 67 c-2
42 -8 68 -15 71 -10 3 -13 -29 -13 -138 0 -109 3 -141 13 -138 7 3 13 28 15
66 l3 62 137 0 c186 -1 182 3 182 -164 l0 -126 -35 0 -35 0 0 -165 0 -165 35
0 35 0 0 -441 c0 -409 -1 -443 -17 -455 -13 -10 -56 -13 -150 -14 l-133 0 0
30 0 30 -165 0 -165 0 6 -30 7 -30 -65 0 c-36 0 -69 5 -76 12 -9 9 -12 124
-12 455 l0 443 35 0 35 0 0 165 0 165 -35 0 -35 0 0 127 c0 170 -8 163 176
163 l143 0 3 -62 c2 -38 8 -63 16 -66 9 -3 12 29 12 138 0 109 -3 141 -12 138
-8 -3 -14 -29 -16 -71 l-3 -67 -141 0 c-118 0 -145 3 -160 17 -17 15 -18 47
-18 615 l0 598 40 0 40 0 0 75 0 75 75 0 75 0 0 -75z m260 -65 l0 -40 -105 0
-105 0 0 33 c0 19 3 37 7 40 3 4 51 7 105 7 l98 0 0 -40z m-440 -1705 l0 -145
-55 0 -55 0 0 145 0 145 55 0 55 0 0 -145z m780 0 l0 -145 -55 0 -55 0 0 145
0 145 55 0 55 0 0 -145z m-372 -1085 l0 -50 -149 0 -149 0 0 50 0 50 149 0
149 0 0 -50z"/>
<path d="M747 2133 c-4 -3 -7 -35 -7 -70 l0 -63 -120 0 -120 0 0 42 0 42 -45
-44 -45 -44 37 -38 c20 -21 41 -38 45 -38 4 0 8 16 8 35 l0 35 120 0 119 0 3
-62 c2 -38 8 -63 16 -66 9 -3 12 29 12 137 0 129 -4 153 -23 134z"/>
<path d="M2546 2133 c-3 -3 -6 -67 -6 -140 0 -103 3 -134 13 -131 7 3 13 28
15 66 l3 62 119 0 120 0 0 -35 c0 -19 4 -35 8 -35 4 0 25 17 46 39 l38 39 -44
40 -43 41 -3 -40 -3 -39 -120 0 -119 0 0 64 c0 60 -8 84 -24 69z"/>
</g>
</svg>
